<svg width="146" height="73" viewBox="0 0 146 73" fill="none" xmlns="http://www.w3.org/2000/svg">
<path d="M10.4886 22.6463V3.0387H2.85556V0.255889H21.2704V3.0387H13.6373V22.6463H10.4886Z" fill="#04E277"/>
<path d="M27.6286 9.91577H39.0782V12.6346H27.6286V9.91577ZM27.9148 19.8635H40.891V22.6463H24.7343V0.255889H40.4458V3.0387H27.9148V19.8635Z" fill="#04E277"/>
<path d="M55.9646 22.9022C54.2684 22.9022 52.6994 22.625 51.2576 22.0706C49.837 21.4948 48.5966 20.6952 47.5364 19.6716C46.4975 18.6267 45.6812 17.4112 45.0875 16.0252C44.4938 14.6391 44.197 13.1144 44.197 11.4511C44.197 9.78783 44.4938 8.26314 45.0875 6.87707C45.6812 5.49099 46.5081 4.28617 47.5682 3.26261C48.6284 2.21772 49.8688 1.41806 51.2894 0.86363C52.7312 0.287877 54.3002 0 55.9964 0C57.7139 0 59.2935 0.298539 60.7353 0.895618C62.1983 1.47137 63.4387 2.335 64.4565 3.48651L62.3892 5.50166C61.541 4.60604 60.5869 3.94498 59.5268 3.5185C58.4666 3.07069 57.3322 2.84679 56.1237 2.84679C54.8727 2.84679 53.7065 3.06003 52.6252 3.48651C51.565 3.913 50.6427 4.51008 49.8582 5.27775C49.0737 6.04542 48.4588 6.96237 48.0135 8.02858C47.5895 9.07347 47.3774 10.2143 47.3774 11.4511C47.3774 12.6879 47.5895 13.8394 48.0135 14.9056C48.4588 15.9505 49.0737 16.8568 49.8582 17.6245C50.6427 18.3922 51.565 18.9892 52.6252 19.4157C53.7065 19.8422 54.8727 20.0555 56.1237 20.0555C57.3322 20.0555 58.4666 19.8422 59.5268 19.4157C60.5869 18.9679 61.541 18.2855 62.3892 17.3686L64.4565 19.3837C63.4387 20.5352 62.1983 21.4095 60.7353 22.0066C59.2935 22.6037 57.7033 22.9022 55.9646 22.9022Z" fill="#04E277"/>
<path d="M84.9594 0.255889H88.1399V22.6463H84.9594V0.255889ZM72.174 22.6463H68.9936V0.255889H72.174V22.6463ZM85.2457 12.6666H71.856V9.88379H85.2457V12.6666Z" fill="#04E277"/>
<path d="M94.8037 22.6463V0.255889H97.4117L112.137 18.6481H110.77V0.255889H113.95V22.6463H111.342L96.6165 4.25419H97.9841V22.6463H94.8037Z" fill="#04E277"/>
<path d="M130.664 22.9022C128.968 22.9022 127.388 22.6144 125.925 22.0386C124.483 21.4629 123.232 20.6632 122.172 19.6396C121.112 18.5947 120.285 17.3793 119.691 15.9932C119.098 14.6071 118.801 13.0931 118.801 11.4511C118.801 9.80915 119.098 8.29513 119.691 6.90906C120.285 5.52298 121.112 4.31816 122.172 3.2946C123.232 2.24971 124.483 1.43939 125.925 0.86363C127.367 0.287877 128.947 0 130.664 0C132.36 0 133.919 0.287877 135.339 0.86363C136.781 1.41806 138.032 2.21772 139.092 3.26261C140.174 4.28617 141.001 5.49099 141.573 6.87707C142.167 8.26314 142.464 9.78783 142.464 11.4511C142.464 13.1144 142.167 14.6391 141.573 16.0252C141.001 17.4112 140.174 18.6267 139.092 19.6716C138.032 20.6952 136.781 21.4948 135.339 22.0706C133.919 22.625 132.36 22.9022 130.664 22.9022ZM130.664 20.0555C131.894 20.0555 133.028 19.8422 134.067 19.4157C135.127 18.9892 136.039 18.3922 136.802 17.6245C137.587 16.8355 138.191 15.9185 138.615 14.8737C139.06 13.8288 139.283 12.6879 139.283 11.4511C139.283 10.2143 139.06 9.07347 138.615 8.02858C138.191 6.98369 137.587 6.07741 136.802 5.30974C136.039 4.52074 135.127 3.913 134.067 3.48651C133.028 3.06003 131.894 2.84679 130.664 2.84679C129.413 2.84679 128.257 3.06003 127.197 3.48651C126.158 3.913 125.247 4.52074 124.462 5.30974C123.678 6.07741 123.063 6.98369 122.618 8.02858C122.193 9.07347 121.981 10.2143 121.981 11.4511C121.981 12.6879 122.193 13.8288 122.618 14.8737C123.063 15.9185 123.678 16.8355 124.462 17.6245C125.247 18.3922 126.158 18.9892 127.197 19.4157C128.257 19.8422 129.413 20.0555 130.664 20.0555Z" fill="#04E277"/>
<path d="M14.1 73C11.3625 73 8.70737 72.6351 6.13474 71.9054C3.59509 71.1424 1.55018 70.1639 0 68.9697L2.72105 62.8994C4.20527 63.9941 5.96983 64.8731 8.01474 65.5365C10.0597 66.1999 12.1046 66.5316 14.1495 66.5316C16.4253 66.5316 18.1074 66.1999 19.1958 65.5365C20.2842 64.8399 20.8284 63.9277 20.8284 62.7999C20.8284 61.9706 20.4986 61.2906 19.839 60.7599C19.2123 60.196 18.3877 59.7482 17.3653 59.4165C16.3758 59.0848 15.0235 58.7199 13.3084 58.3218C10.6698 57.6916 8.50948 57.0613 6.82737 56.4311C5.14527 55.8008 3.69404 54.7891 2.47369 53.3959C1.28632 52.0027 0.692632 50.1451 0.692632 47.8232C0.692632 45.7997 1.23684 43.9753 2.32526 42.35C3.41369 40.6914 5.04632 39.3811 7.22316 38.4192C9.43299 37.4572 12.1211 36.9762 15.2874 36.9762C17.4972 36.9762 19.6576 37.2416 21.7684 37.7723C23.8793 38.3031 25.7263 39.066 27.3095 40.0611L24.8358 46.1812C21.6365 44.3568 18.4372 43.4446 15.2379 43.4446C12.9951 43.4446 11.3295 43.8095 10.2411 44.5392C9.18562 45.269 8.6579 46.231 8.6579 47.4251C8.6579 48.6193 9.26807 49.5149 10.4884 50.112C11.7418 50.6759 13.6383 51.2398 16.1779 51.8037C18.8165 52.434 20.9769 53.0642 22.659 53.6945C24.3411 54.3247 25.7758 55.3198 26.9632 56.6798C28.1835 58.0399 28.7937 59.8809 28.7937 62.2028C28.7937 64.1931 28.233 66.0175 27.1116 67.676C26.0232 69.3014 24.374 70.5951 22.1642 71.5571C19.9544 72.519 17.2663 73 14.1 73Z" fill="#04E277"/>
<path d="M66.0323 37.5733V72.4029H58.0176V58.1228H42.2849V72.4029H34.2702V37.5733H42.2849V51.3061H58.0176V37.5733H66.0323Z" fill="#04E277"/>
<path d="M90.9976 73C87.4025 73 84.1537 72.2205 81.2513 70.6614C78.3818 69.1024 76.1225 66.9629 74.4734 64.2429C72.8572 61.4897 72.0492 58.4047 72.0492 54.9881C72.0492 51.5715 72.8572 48.5032 74.4734 45.7832C76.1225 43.03 78.3818 40.8738 81.2513 39.3148C84.1537 37.7558 87.4025 36.9762 90.9976 36.9762C94.5927 36.9762 97.825 37.7558 100.694 39.3148C103.564 40.8738 105.823 43.03 107.472 45.7832C109.121 48.5032 109.946 51.5715 109.946 54.9881C109.946 58.4047 109.121 61.4897 107.472 64.2429C105.823 66.9629 103.564 69.1024 100.694 70.6614C97.825 72.2205 94.5927 73 90.9976 73ZM90.9976 66.1336C93.0425 66.1336 94.8895 65.6692 96.5387 64.7404C98.1878 63.7785 99.4741 62.4516 100.398 60.7599C101.354 59.0682 101.832 57.1442 101.832 54.9881C101.832 52.832 101.354 50.9081 100.398 49.2164C99.4741 47.5246 98.1878 46.2144 96.5387 45.2856C94.8895 44.3236 93.0425 43.8427 90.9976 43.8427C88.9527 43.8427 87.1057 44.3236 85.4566 45.2856C83.8074 46.2144 82.5046 47.5246 81.5481 49.2164C80.6246 50.9081 80.1629 52.832 80.1629 54.9881C80.1629 57.1442 80.6246 59.0682 81.5481 60.7599C82.5046 62.4516 83.8074 63.7785 85.4566 64.7404C87.1057 65.6692 88.9527 66.1336 90.9976 66.1336Z" fill="#04E277"/>
<path d="M130.96 37.5733C134.027 37.5733 136.682 38.0875 138.925 39.1158C141.201 40.1441 142.949 41.6036 144.169 43.4944C145.39 45.3851 146 47.6241 146 50.2115C146 52.7657 145.39 55.0047 144.169 56.9286C142.949 58.8194 141.201 60.2789 138.925 61.3072C136.682 62.3023 134.027 62.7999 130.96 62.7999H123.984V72.4029H115.969V37.5733H130.96ZM130.515 56.232C132.922 56.232 134.753 55.7179 136.006 54.6896C137.26 53.6281 137.886 52.1354 137.886 50.2115C137.886 48.2544 137.26 46.7617 136.006 45.7334C134.753 44.6719 132.922 44.1412 130.515 44.1412H123.984V56.232H130.515Z" fill="#04E277"/>
</svg>
