<svg width="146" height="73" fill="none" xmlns="http://www.w3.org/2000/svg"><path d="M10.489 22.646V3.04H2.856V.256H21.27v2.783h-7.633v19.607H10.49Zm17.14-12.73h11.45v2.719h-11.45v-2.72Zm.286 9.947H40.89v2.783H24.734V.256h15.712v2.783H27.915v16.825Zm28.05 3.039c-1.697 0-3.266-.277-4.707-.831a11.536 11.536 0 0 1-3.722-2.4 11.594 11.594 0 0 1-2.449-3.646c-.593-1.386-.89-2.91-.89-4.574 0-1.663.297-3.188.89-4.574a10.974 10.974 0 0 1 2.481-3.614 10.87 10.87 0 0 1 3.721-2.4C52.731.289 54.3 0 55.996 0c1.718 0 3.297.299 4.74.896a9.564 9.564 0 0 1 3.72 2.59L62.39 5.503c-.848-.896-1.802-1.557-2.862-1.983a8.655 8.655 0 0 0-3.403-.672c-1.251 0-2.418.213-3.499.64a8.383 8.383 0 0 0-2.767 1.79 8.245 8.245 0 0 0-1.844 2.752c-.425 1.044-.637 2.185-.637 3.422s.212 2.388.636 3.455a8.328 8.328 0 0 0 1.845 2.719 8.383 8.383 0 0 0 2.767 1.79c1.081.427 2.248.64 3.499.64a9.032 9.032 0 0 0 3.403-.64c1.06-.447 2.014-1.13 2.862-2.046l2.068 2.015a9.868 9.868 0 0 1-3.722 2.623c-1.441.597-3.032.895-4.77.895ZM84.96.256h3.18v22.39h-3.18V.256Zm-12.786 22.39h-3.18V.256h3.18v22.39Zm13.072-9.98h-13.39V9.885h13.39v2.783Zm9.558 9.98V.256h2.608l14.725 18.392h-1.367V.256h3.18v22.39h-2.608L96.617 4.254h1.367v18.392h-3.18Zm35.86.256c-1.696 0-3.276-.288-4.739-.863-1.442-.576-2.693-1.376-3.753-2.4a11.341 11.341 0 0 1-2.481-3.646c-.593-1.386-.89-2.9-.89-4.542s.297-3.156.89-4.542a10.98 10.98 0 0 1 2.481-3.614 11.193 11.193 0 0 1 3.753-2.431C127.367.288 128.947 0 130.664 0c1.696 0 3.255.288 4.675.864a10.8 10.8 0 0 1 3.753 2.399 10.357 10.357 0 0 1 2.481 3.614c.594 1.386.891 2.91.891 4.574 0 1.663-.297 3.188-.891 4.574a10.683 10.683 0 0 1-2.481 3.647c-1.06 1.023-2.311 1.823-3.753 2.399-1.42.554-2.979.831-4.675.831Zm0-2.847c1.23 0 2.364-.213 3.403-.64a8.033 8.033 0 0 0 2.735-1.79 8.265 8.265 0 0 0 1.813-2.751c.445-1.045.668-2.186.668-3.423s-.223-2.378-.668-3.422a7.923 7.923 0 0 0-1.813-2.72 7.809 7.809 0 0 0-2.735-1.822c-1.039-.427-2.173-.64-3.403-.64-1.251 0-2.407.213-3.467.64a8.221 8.221 0 0 0-2.735 1.823 8.33 8.33 0 0 0-1.844 2.719c-.425 1.044-.637 2.185-.637 3.422s.212 2.378.637 3.423a8.7 8.7 0 0 0 1.844 2.75 8.47 8.47 0 0 0 2.735 1.792c1.06.426 2.216.64 3.467.64ZM14.1 73c-2.737 0-5.393-.365-7.965-1.095C3.595 71.142 1.55 70.164 0 68.97l2.721-6.07c1.484 1.094 3.249 1.973 5.294 2.637 2.045.663 4.09.995 6.134.995 2.276 0 3.958-.332 5.047-.995 1.088-.697 1.632-1.61 1.632-2.737 0-.83-.33-1.51-.989-2.04-.627-.564-1.451-1.012-2.474-1.343-.99-.332-2.341-.697-4.057-1.095-2.638-.63-4.799-1.26-6.48-1.89-1.683-.631-3.134-1.643-4.354-3.036-1.188-1.393-1.781-3.25-1.781-5.573 0-2.023.544-3.848 1.632-5.473 1.089-1.659 2.721-2.969 4.898-3.93 2.21-.963 4.898-1.444 8.064-1.444 2.21 0 4.37.266 6.481.796 2.111.531 3.958 1.294 5.541 2.29l-2.473 6.12c-3.2-1.825-6.399-2.737-9.598-2.737-2.243 0-3.909.364-4.997 1.094-1.055.73-1.583 1.692-1.583 2.886 0 1.194.61 2.09 1.83 2.687 1.254.564 3.15 1.128 5.69 1.692 2.639.63 4.799 1.26 6.481 1.89a10.54 10.54 0 0 1 4.304 2.986c1.22 1.36 1.83 3.2 1.83 5.523 0 1.99-.56 3.814-1.681 5.473-1.089 1.625-2.738 2.92-4.948 3.881C19.954 72.52 17.266 73 14.1 73Zm51.932-35.427v34.83h-8.014v-14.28H42.285v14.28H34.27v-34.83h8.015v13.733h15.733V37.573h8.014ZM90.998 73c-3.596 0-6.844-.78-9.747-2.339-2.87-1.559-5.129-3.698-6.778-6.418-1.616-2.753-2.424-5.838-2.424-9.255 0-3.416.808-6.485 2.424-9.205 1.65-2.753 3.909-4.91 6.778-6.468 2.903-1.56 6.151-2.339 9.747-2.339 3.595 0 6.827.78 9.696 2.339 2.87 1.559 5.129 3.715 6.778 6.468 1.649 2.72 2.474 5.788 2.474 9.205s-.825 6.502-2.474 9.255c-1.649 2.72-3.908 4.86-6.778 6.418C97.825 72.221 94.593 73 90.998 73Zm0-6.866c2.044 0 3.891-.465 5.54-1.394a10.153 10.153 0 0 0 3.86-3.98c.956-1.692 1.434-3.616 1.434-5.772s-.478-4.08-1.434-5.772c-.924-1.691-2.21-3.002-3.86-3.93-1.648-.962-3.495-1.443-5.54-1.443s-3.892.48-5.541 1.443c-1.65.928-2.952 2.239-3.909 3.93-.923 1.692-1.385 3.616-1.385 5.772s.462 4.08 1.385 5.772c.957 1.692 2.26 3.019 3.909 3.98 1.649.93 3.496 1.394 5.54 1.394Zm39.962-28.561c3.067 0 5.722.514 7.965 1.543 2.276 1.028 4.024 2.488 5.244 4.378 1.221 1.891 1.831 4.13 1.831 6.718 0 2.554-.61 4.793-1.831 6.717-1.22 1.89-2.968 3.35-5.244 4.378-2.243.995-4.898 1.493-7.965 1.493h-6.976v9.603h-8.015v-34.83h14.991Zm-.445 18.659c2.407 0 4.238-.514 5.491-1.542 1.254-1.062 1.88-2.555 1.88-4.478 0-1.958-.626-3.45-1.88-4.479-1.253-1.061-3.084-1.592-5.491-1.592h-6.531v12.091h6.531Z" fill="#04E277"/></svg>